<?xml version="1.0" encoding="UTF-8" standalone="no"?>
<!-- Generator: Adobe Illustrator 24.0.1, SVG Export Plug-In . SVG Version: 6.00 Build 0)  -->

<svg
   xmlns:dc="http://purl.org/dc/elements/1.1/"
   xmlns:cc="http://creativecommons.org/ns#"
   xmlns:rdf="http://www.w3.org/1999/02/22-rdf-syntax-ns#"
   xmlns:svg="http://www.w3.org/2000/svg"
   xmlns="http://www.w3.org/2000/svg"
   xmlns:sodipodi="http://sodipodi.sourceforge.net/DTD/sodipodi-0.dtd"
   xmlns:inkscape="http://www.inkscape.org/namespaces/inkscape"
   version="1.1"
   id="Ebene_1"
   x="0px"
   y="0px"
   viewBox="0 0 125.83852 97.036255"
   xml:space="preserve"
   sodipodi:docname="confidential_message_white.svg"
   inkscape:version="0.92.4 (5da689c313, 2019-01-14)"
   width="125.83852"
   height="97.036255"
   style="fill:#ffffff;stroke:#ffffff"><metadata
     id="metadata11"><rdf:RDF><cc:Work
         rdf:about=""><dc:format>image/svg+xml</dc:format><dc:type
           rdf:resource="http://purl.org/dc/dcmitype/StillImage" /><dc:title></dc:title></cc:Work></rdf:RDF></metadata><defs
     id="defs12" /><sodipodi:namedview
     borderopacity="1"
     objecttolerance="10"
     gridtolerance="10"
     guidetolerance="10"
     inkscape:pageopacity="0"
     inkscape:pageshadow="2"
     inkscape:window-width="1920"
     inkscape:window-height="1017"
     id="namedview10"
     showgrid="false"
     inkscape:zoom="6.9640981"
     inkscape:cx="47.219535"
     inkscape:cy="56.185555"
     inkscape:window-x="-8"
     inkscape:window-y="-8"
     inkscape:window-maximized="1"
     inkscape:current-layer="layer1"
     fit-margin-top="0"
     fit-margin-left="0"
     fit-margin-right="0"
     fit-margin-bottom="0"
     bordercolor="#666666"
     pagecolor="#ffffff" /><g
     inkscape:groupmode="layer"
     id="layer1"
     inkscape:label="mail"
     style="display:inline"
     transform="translate(-129.7,-143.16414)"><path
       d="m 10.099609,15.900391 c -5.4999992,0 -9.99999963,4.5 -9.99999963,10 v 4 c 0,1.5 0.70039063,3.00039 1.90039063,3.90039 6.4,5 8.499609,6.698828 36.099609,26.798828 3.4,2.6 10.301172,8.69961 15.201172,8.59961 3.960551,0.08251 9.312526,-4.033953 13.066407,-6.91211 A 34.717644,34.717644 0 0 1 54.138672,35.847656 34.717644,34.717644 0 0 1 60.462891,15.900391 Z M 1.3496094,42.162109 C 0.67460934,42.124609 0,42.650391 0,43.400391 v 42.5 c 0,5.5 4.5,10 10,10 h 86.5 c 5.5,0 10,-4.5 10,-10 V 65.699219 A 34.717644,34.717644 0 0 1 88.855469,70.564453 34.717644,34.717644 0 0 1 72.087891,66.240234 C 67.837929,69.426507 60.444272,75.998297 53.199219,75.900391 45.799219,75.900391 38.4,69.2 34,66 12.8,50.6 6.7,46.000391 2,42.400391 1.8,42.250391 1.5746094,42.174609 1.3496094,42.162109 Z"
       transform="translate(130.2,143.8)"
       id="path4"
       inkscape:connector-curvature="0" /></g><g
     inkscape:groupmode="layer"
     id="layer4"
     inkscape:label="lock mask"
     style="display:none"
     transform="translate(0.5,0.63585973)" /><g
     style="display:inline"
     inkscape:label="lock"
     id="g4544"
     inkscape:groupmode="layer"
     transform="translate(0.5,0.63585973)"><circle
       id="circle4540"
       cy="35.847088"
       cx="88.855576"
       class="st1"
       style="display:inline;fill-opacity:0;stroke-width:3.5306077;stroke-miterlimit:10;stroke-opacity:1"
       r="34.717644" /><path
       inkscape:connector-curvature="0"
       d="M 103.16805,54.601507 H 73.864004 c -1.059182,0 -1.88299,-0.823809 -1.88299,-1.882991 V 36.242348 c 0,-1.059182 0.823808,-1.882991 1.88299,-1.882991 h 3.177547 v -8.944205 c 0,-6.355094 5.178224,-11.415631 11.415631,-11.415631 6.355093,0 11.415631,5.178223 11.415631,11.415631 v 8.944205 h 3.177547 c 1.05919,0 1.88299,0.823809 1.88299,1.882991 v 16.476168 c 0.23538,0.941496 -0.70612,1.882991 -1.7653,1.882991 z m -16.476171,-9.53264 v 3.765981 c 0,1.059183 0.823808,1.882991 1.88299,1.882991 1.059183,0 1.882991,-0.823808 1.882991,-1.882991 v -3.765981 c 1.176869,-0.706121 1.88299,-1.882991 1.88299,-3.295234 0,-2.118365 -1.765303,-3.765981 -3.765981,-3.765981 -2.118364,0 -3.765981,1.765304 -3.765981,3.765981 0,1.412243 0.706121,2.706799 1.882991,3.295234 z m 9.53264,-19.771403 c 0,-4.236729 -3.412921,-7.649649 -7.64965,-7.649649 -4.23673,0 -7.64965,3.41292 -7.64965,7.649649 v 8.944207 h 15.2993 z"
       class="st2"
       id="path4542"
       style="clip-rule:evenodd;display:inline;fill-opacity:1;fill-rule:evenodd;stroke-width:1.17686915;stroke-opacity:1" /></g></svg>