<?xml version="1.0" encoding="utf-8"?>
<!-- Generator: Adobe Illustrator 22.0.1, SVG Export Plug-In . SVG Version: 6.00 Build 0)  -->
<svg version="1.1" id="Ebene_1" xmlns="http://www.w3.org/2000/svg" xmlns:xlink="http://www.w3.org/1999/xlink" x="0px" y="0px"
	 viewBox="0 0 400 95" style="enable-background:new 0 0 400 95;" xml:space="preserve">
<style type="text/css">
	.st0{fill:#C4C4C4;}
</style>
<path class="st0" d="M211.9,23.1l-2,2.1c2.2,2.5,3.6,5.7,3.6,9.3c0,7.6-6.2,13.8-13.8,13.8s-13.8-6.2-13.8-13.8
	c0-3.5,1.3-6.8,3.6-9.2l-2.1-2c-2.7,3-4.4,6.9-4.4,11.2c0,9.2,7.5,16.7,16.7,16.7s16.7-7.5,16.7-16.7
	C216.4,30.1,214.7,26.1,211.9,23.1z"/>
<polygon class="st0" points="191.3,20.1 193.4,22.1 198.2,17.2 198.2,32.5 201.1,32.5 201.1,17.2 206,22.1 208,20.1 201.7,13.7 
	201.7,13.7 199.7,11.7 199.7,11.7 199.7,11.7 197.6,13.7 197.6,13.7 "/>
<g>
	<path class="st0" d="M149.1,72.8V59.2h4.7c1.1,0,1.9,0.1,2.4,0.2c0.8,0.2,1.4,0.5,2,1c0.7,0.6,1.3,1.4,1.6,2.3
		c0.4,0.9,0.5,2,0.5,3.2c0,1-0.1,1.9-0.4,2.7s-0.6,1.5-0.9,2c-0.4,0.5-0.8,0.9-1.2,1.2c-0.4,0.3-1,0.5-1.6,0.7
		c-0.6,0.2-1.4,0.2-2.2,0.2H149.1z M150.9,71.2h2.9c0.9,0,1.6-0.1,2.1-0.3c0.5-0.2,0.9-0.4,1.2-0.7c0.4-0.4,0.8-1,1-1.7
		c0.2-0.7,0.4-1.6,0.4-2.6c0-1.4-0.2-2.5-0.7-3.3c-0.5-0.8-1-1.3-1.7-1.5c-0.5-0.2-1.3-0.3-2.3-0.3h-2.9V71.2z"/>
	<path class="st0" d="M162.6,72.8v-9.9h1.5v1.5c0.4-0.7,0.7-1.2,1.1-1.4c0.3-0.2,0.7-0.3,1.1-0.3c0.6,0,1.1,0.2,1.7,0.5l-0.6,1.5
		c-0.4-0.2-0.8-0.4-1.2-0.4c-0.4,0-0.7,0.1-1,0.3c-0.3,0.2-0.5,0.5-0.6,0.9c-0.2,0.6-0.3,1.2-0.3,1.9v5.2H162.6z"/>
	<path class="st0" d="M175.4,71.6c-0.6,0.5-1.2,0.9-1.8,1.1c-0.6,0.2-1.2,0.3-1.8,0.3c-1.1,0-1.9-0.3-2.5-0.8
		c-0.6-0.5-0.9-1.2-0.9-2c0-0.5,0.1-0.9,0.3-1.3c0.2-0.4,0.5-0.7,0.9-1c0.4-0.2,0.8-0.4,1.2-0.5c0.3-0.1,0.8-0.2,1.5-0.3
		c1.3-0.2,2.3-0.4,3-0.6c0-0.2,0-0.4,0-0.4c0-0.7-0.2-1.2-0.5-1.4c-0.4-0.4-1.1-0.6-1.9-0.6c-0.8,0-1.4,0.1-1.7,0.4
		c-0.4,0.3-0.7,0.8-0.8,1.5l-1.6-0.2c0.1-0.7,0.4-1.3,0.7-1.7c0.3-0.4,0.8-0.8,1.5-1c0.6-0.2,1.4-0.3,2.2-0.3c0.8,0,1.5,0.1,2.1,0.3
		c0.5,0.2,0.9,0.4,1.2,0.7c0.2,0.3,0.4,0.7,0.5,1.1c0.1,0.3,0.1,0.8,0.1,1.5v2.2c0,1.6,0,2.5,0.1,2.9c0.1,0.4,0.2,0.8,0.4,1.2h-1.7
		C175.6,72.4,175.4,72,175.4,71.6z M175.3,67.8c-0.6,0.2-1.5,0.5-2.7,0.6c-0.7,0.1-1.2,0.2-1.5,0.3c-0.3,0.1-0.5,0.3-0.7,0.5
		c-0.2,0.2-0.2,0.5-0.2,0.8c0,0.4,0.2,0.8,0.5,1.1c0.3,0.3,0.8,0.4,1.5,0.4c0.6,0,1.2-0.1,1.7-0.4c0.5-0.3,0.9-0.7,1.1-1.2
		c0.2-0.4,0.3-0.9,0.3-1.7V67.8z"/>
	<path class="st0" d="M179.2,73.6l1.6,0.2c0.1,0.5,0.3,0.9,0.6,1.1c0.4,0.3,1,0.5,1.7,0.5c0.8,0,1.4-0.2,1.8-0.5
		c0.4-0.3,0.7-0.7,0.9-1.3c0.1-0.3,0.1-1.1,0.1-2.1c-0.7,0.9-1.6,1.3-2.7,1.3c-1.4,0-2.4-0.5-3.1-1.5c-0.7-1-1.1-2.1-1.1-3.5
		c0-0.9,0.2-1.8,0.5-2.6c0.3-0.8,0.8-1.4,1.5-1.8c0.6-0.4,1.4-0.6,2.3-0.6c1.2,0,2.1,0.5,2.9,1.4v-1.2h1.5v8.5
		c0,1.5-0.2,2.6-0.5,3.3c-0.3,0.6-0.8,1.1-1.5,1.5c-0.7,0.4-1.5,0.6-2.5,0.6c-1.2,0-2.1-0.3-2.8-0.8
		C179.6,75.4,179.2,74.7,179.2,73.6z M180.6,67.7c0,1.3,0.3,2.2,0.8,2.8c0.5,0.6,1.2,0.9,1.9,0.9c0.8,0,1.4-0.3,1.9-0.9
		c0.5-0.6,0.8-1.5,0.8-2.8c0-1.2-0.3-2.1-0.8-2.7c-0.5-0.6-1.2-0.9-1.9-0.9c-0.7,0-1.4,0.3-1.9,0.9
		C180.9,65.6,180.6,66.5,180.6,67.7z"/>
	<path class="st0" d="M203.2,71.2c-0.6,0.6-1.2,1.1-1.8,1.4c-0.6,0.3-1.4,0.5-2.1,0.5c-1.4,0-2.5-0.5-3.3-1.4c-0.7-0.8-1-1.6-1-2.6
		c0-0.8,0.3-1.6,0.8-2.3c0.5-0.7,1.4-1.3,2.4-1.8c-0.6-0.7-1-1.3-1.2-1.7s-0.3-0.9-0.3-1.3c0-0.8,0.3-1.5,1-2.1
		c0.6-0.6,1.4-0.9,2.4-0.9c0.9,0,1.7,0.3,2.3,0.9c0.6,0.6,0.9,1.3,0.9,2c0,1.3-0.9,2.4-2.6,3.3l2.4,3.1c0.3-0.5,0.5-1.2,0.7-1.9
		l1.7,0.4c-0.3,1.2-0.7,2.2-1.2,2.9c0.6,0.8,1.3,1.5,2.1,2.1l-1.1,1.3C204.6,72.7,203.9,72,203.2,71.2z M202.1,69.8l-3.1-3.8
		c-0.9,0.5-1.5,1-1.8,1.5c-0.3,0.5-0.5,0.9-0.5,1.4c0,0.6,0.2,1.1,0.7,1.7c0.4,0.6,1.1,0.9,1.9,0.9c0.5,0,1-0.2,1.6-0.5
		C201.4,70.7,201.8,70.3,202.1,69.8z M199.8,64.1c0.7-0.4,1.2-0.8,1.4-1.1c0.2-0.3,0.3-0.7,0.3-1.1c0-0.5-0.1-0.8-0.4-1.1
		c-0.3-0.3-0.7-0.4-1.1-0.4c-0.5,0-0.8,0.1-1.1,0.4c-0.3,0.3-0.4,0.6-0.4,1.1c0,0.2,0.1,0.4,0.2,0.7c0.1,0.2,0.3,0.5,0.5,0.7
		L199.8,64.1z"/>
	<path class="st0" d="M213.5,72.8V59.2h4.7c1.1,0,1.9,0.1,2.4,0.2c0.8,0.2,1.4,0.5,2,1c0.7,0.6,1.3,1.4,1.6,2.3
		c0.4,0.9,0.5,2,0.5,3.2c0,1-0.1,1.9-0.4,2.7c-0.2,0.8-0.5,1.5-0.9,2c-0.4,0.5-0.8,0.9-1.2,1.2c-0.4,0.3-1,0.5-1.6,0.7
		c-0.6,0.2-1.4,0.2-2.2,0.2H213.5z M215.3,71.2h2.9c0.9,0,1.6-0.1,2.1-0.3c0.5-0.2,0.9-0.4,1.2-0.7c0.4-0.4,0.8-1,1-1.7
		s0.4-1.6,0.4-2.6c0-1.4-0.2-2.5-0.7-3.3c-0.5-0.8-1-1.3-1.7-1.5c-0.5-0.2-1.3-0.3-2.3-0.3h-2.9V71.2z"/>
	<path class="st0" d="M227,72.8v-9.9h1.5v1.5c0.4-0.7,0.7-1.2,1.1-1.4c0.3-0.2,0.7-0.3,1.1-0.3c0.6,0,1.1,0.2,1.7,0.5l-0.6,1.5
		c-0.4-0.2-0.8-0.4-1.2-0.4c-0.4,0-0.7,0.1-1,0.3c-0.3,0.2-0.5,0.5-0.6,0.9c-0.2,0.6-0.3,1.2-0.3,1.9v5.2H227z"/>
	<path class="st0" d="M232.8,67.8c0-1.8,0.5-3.2,1.5-4.1c0.8-0.7,1.9-1.1,3.1-1.1c1.4,0,2.5,0.4,3.3,1.3c0.9,0.9,1.3,2.1,1.3,3.7
		c0,1.3-0.2,2.3-0.6,3c-0.4,0.7-0.9,1.3-1.7,1.7c-0.7,0.4-1.5,0.6-2.4,0.6c-1.4,0-2.5-0.4-3.3-1.3S232.8,69.5,232.8,67.8z
		 M234.5,67.8c0,1.3,0.3,2.2,0.8,2.8s1.2,0.9,2.1,0.9c0.8,0,1.5-0.3,2.1-0.9c0.5-0.6,0.8-1.6,0.8-2.9c0-1.2-0.3-2.1-0.8-2.8
		c-0.6-0.6-1.2-0.9-2.1-0.9c-0.8,0-1.5,0.3-2.1,0.9C234.8,65.6,234.5,66.6,234.5,67.8z"/>
	<path class="st0" d="M243.9,76.5V62.9h1.5v1.3c0.4-0.5,0.8-0.9,1.2-1.1c0.5-0.3,1-0.4,1.6-0.4c0.8,0,1.6,0.2,2.2,0.6
		c0.6,0.4,1.1,1,1.5,1.8c0.3,0.8,0.5,1.7,0.5,2.6c0,1-0.2,1.9-0.5,2.7c-0.4,0.8-0.9,1.4-1.6,1.9c-0.7,0.4-1.4,0.6-2.2,0.6
		c-0.6,0-1.1-0.1-1.5-0.4c-0.4-0.2-0.8-0.5-1.1-0.9v4.8H243.9z M245.5,67.9c0,1.3,0.3,2.2,0.8,2.8c0.5,0.6,1.1,0.9,1.9,0.9
		c0.7,0,1.4-0.3,1.9-0.9c0.5-0.6,0.8-1.6,0.8-2.9c0-1.3-0.3-2.2-0.8-2.8c-0.5-0.6-1.1-0.9-1.9-0.9c-0.7,0-1.3,0.3-1.9,1
		C245.7,65.7,245.5,66.6,245.5,67.9z"/>
</g>
</svg>
