<?xml version="1.0" encoding="UTF-8" standalone="no"?>
<svg
   xmlns:dc="http://purl.org/dc/elements/1.1/"
   xmlns:cc="http://creativecommons.org/ns#"
   xmlns:rdf="http://www.w3.org/1999/02/22-rdf-syntax-ns#"
   xmlns:svg="http://www.w3.org/2000/svg"
   xmlns="http://www.w3.org/2000/svg"
   width="14.179968mm"
   height="4.568182mm"
   viewBox="0 0 14.179968 4.568182"
   version="1.1"
   id="svg8">
  <defs
     id="defs2" />
  <metadata
     id="metadata5">
    <rdf:RDF>
      <cc:Work
         rdf:about="">
        <dc:format>image/svg+xml</dc:format>
        <dc:type
           rdf:resource="http://purl.org/dc/dcmitype/StillImage" />
        <dc:title></dc:title>
      </cc:Work>
    </rdf:RDF>
  </metadata>
  <g
     id="layer1"
     transform="translate(-76.62281,-129.52466)">
    <g
       aria-label="***"
       id="text835"
       style="font-style:normal;font-weight:normal;font-size:10.5833px;line-height:1.25;font-family:Roboto;letter-spacing:0px;word-spacing:0px;fill:#000000;fill-opacity:1;stroke:none;stroke-width:0.264583">
      <path
         d="m 78.245445,132.07746 -1.622635,-0.45991 0.30489,-0.93534 1.607132,0.64595 -0.103353,-1.8035 h 1.012855 l -0.103352,1.83967 1.565791,-0.63562 0.304889,0.94568 -1.65364,0.45992 1.085202,1.37459 -0.821653,0.58394 -0.940508,-1.50895 -0.930173,1.45727 -0.821653,-0.5581 z"
         style="font-style:normal;font-variant:normal;font-weight:bold;font-stretch:normal;font-family:Roboto;-inkscape-font-specification:'Roboto Bold';stroke-width:0.264583"
         id="path839" />
      <path
         d="m 83.041002,132.07746 -1.622635,-0.45991 0.30489,-0.93534 1.607132,0.64595 -0.103352,-1.8035 h 1.012855 l -0.103353,1.83967 1.565791,-0.63562 0.30489,0.94568 -1.653641,0.45992 1.085202,1.37459 -0.821653,0.58394 -0.940508,-1.50895 -0.930173,1.45727 -0.821652,-0.5581 z"
         style="font-style:normal;font-variant:normal;font-weight:bold;font-stretch:normal;font-family:Roboto;-inkscape-font-specification:'Roboto Bold';stroke-width:0.264583"
         id="path841" />
      <path
         d="m 87.83656,132.07746 -1.622635,-0.45991 0.30489,-0.93534 1.607132,0.64595 -0.103353,-1.8035 h 1.012855 l -0.103352,1.83967 1.565791,-0.63562 0.304889,0.94568 -1.65364,0.45992 1.085202,1.37459 -0.821653,0.58394 -0.940508,-1.50895 -0.930173,1.45727 -0.821653,-0.5581 z"
         style="font-style:normal;font-variant:normal;font-weight:bold;font-stretch:normal;font-family:Roboto;-inkscape-font-specification:'Roboto Bold';stroke-width:0.264583"
         id="path843" />
    </g>
  </g>
</svg>
