<?xml version="1.0" encoding="utf-8"?>
<!-- Generator: Adobe Illustrator 15.0.0, SVG Export Plug-In  -->
<!DOCTYPE svg PUBLIC "-//W3C//DTD SVG 1.1//EN" "http://www.w3.org/Graphics/SVG/1.1/DTD/svg11.dtd" [
	<!ENTITY ns_flows "http://ns.adobe.com/Flows/1.0/">
]>
<svg version="1.1"
	 xmlns="http://www.w3.org/2000/svg" xmlns:xlink="http://www.w3.org/1999/xlink" xmlns:a="http://ns.adobe.com/AdobeSVGViewerExtensions/3.0/"
	 x="0px" y="0px" width="192px" height="96px" viewBox="-65.85 -11.366 192 96" enable-background="new -65.85 -11.366 192 96"
	 xml:space="preserve">
<defs>
</defs>
<path display="none" fill="#FFFFFF" d="M50.038,21.831l-3.476,3.595c3.885,4.253,6.258,9.909,6.258,16.109
	c0,13.185-10.726,23.91-23.91,23.91S5,54.719,5,41.535c0-6.146,2.333-11.756,6.157-15.996l-3.596-3.476
	C2.867,27.205,0,34.041,0,41.535c0,15.941,12.969,28.91,28.91,28.91s28.91-12.969,28.91-28.91
	C57.82,33.926,54.86,26.998,50.038,21.831z"/>
<path display="none" fill="#FFFFFF" d="M8.128,70.445l3.476-3.596c-3.885-4.252-6.258-9.908-6.258-16.108
	c0-13.185,10.726-23.91,23.91-23.91c13.184,0,23.91,10.726,23.91,23.91c0,6.146-2.333,11.757-6.157,15.996l3.596,3.476
	c4.694-5.142,7.562-11.978,7.562-19.472c0-15.941-12.969-28.91-28.91-28.91c-15.941,0-28.91,12.969-28.91,28.91
	C0.346,58.349,3.306,65.277,8.128,70.445z"/>
<polygon fill="#FFFFFF" points="14.421,14.49 17.957,18.025 26.41,9.572 26.41,36.004 31.411,36.004 31.411,9.572 39.863,18.025 
	43.399,14.49 32.446,3.537 32.447,3.536 28.911,0 28.91,0.001 28.909,0 25.374,3.536 25.375,3.537 "/>
<polygon display="none" fill="none" points="43.745,51.515 40.208,47.979 31.756,56.432 31.756,30 26.756,30 26.756,56.432 
	18.303,47.979 14.767,51.515 25.72,62.467 25.719,62.469 29.255,66.004 29.256,66.003 29.257,66.004 32.792,62.469 32.792,62.467 
	"/>
</svg>
